<svg xmlns="http://www.w3.org/2000/svg" width="24" height="24" viewBox="0 0 24 24" fill="none">
  <path d="M19.25 2H4.75C3.7835 2 3 2.7835 3 3.75V20.25C3 21.2165 3.7835 22 4.75 22H19.25C20.2165 22 21 21.2165 21 20.25V3.75C21 2.7835 20.2165 2 19.25 2ZM17.5 19H6.5V4H17.5V19Z" fill="none" stroke="#333333" stroke-width="1.5"/>
  <rect x="7" y="6" width="2" height="2" fill="none" stroke="#333333" stroke-width="1.5"/>
  <rect x="11" y="6" width="2" height="2" fill="none" stroke="#333333" stroke-width="1.5"/>
  <rect x="15" y="6" width="2" height="2" fill="none" stroke="#333333" stroke-width="1.5"/>
  <rect x="7" y="10" width="2" height="2" fill="none" stroke="#333333" stroke-width="1.5"/>
  <rect x="11" y="10" width="2" height="2" fill="none" stroke="#333333" stroke-width="1.5"/>
  <rect x="15" y="10" width="2" height="2" fill="none" stroke="#333333" stroke-width="1.5"/>
  <rect x="7" y="14" width="2" height="2" fill="none" stroke="#333333" stroke-width="1.5"/>
  <rect x="11" y="14" width="2" height="2" fill="none" stroke="#333333" stroke-width="1.5"/>
  <rect x="15" y="14" width="2" height="2" fill="none" stroke="#333333" stroke-width="1.5"/>
  <rect x="7" y="18" width="2" height="2" fill="none" stroke="#333333" stroke-width="1.5"/>
  <rect x="11" y="18" width="2" height="2" fill="none" stroke="#333333" stroke-width="1.5"/>
  <rect x="15" y="18" width="2" height="2" fill="none" stroke="#333333" stroke-width="1.5"/>
</svg>
