<svg width="199" height="273" viewBox="0 0 199 273" fill="none" xmlns="http://www.w3.org/2000/svg">
<g clip-path="url(#clip0_1787_2974)">
<path d="M176.147 272.559H89.5067C76.9046 272.559 66.6533 262.285 66.6533 249.655V22.904C66.6533 10.274 76.9046 0 89.5067 0H176.147C188.749 0 199 10.274 199 22.904V249.655C199 262.285 188.749 272.559 176.147 272.559Z" fill="#DADBDC"/>
<path d="M176.21 266.604H89.4443C80.1172 266.604 72.5264 258.996 72.5264 249.648V22.9554C72.5264 13.6077 80.1172 6 89.4443 6H176.21C185.537 6 193.128 13.6077 193.128 22.9554V249.648C193.128 258.996 185.537 266.604 176.21 266.604Z" fill="white"/>
<path d="M145.097 20.8447H120.561C117.322 20.8447 114.688 18.2054 114.688 14.9591C114.688 11.7128 117.322 9.07349 120.561 9.07349H145.097C148.336 9.07349 150.969 11.7128 150.969 14.9591C150.969 18.2054 148.336 20.8447 145.097 20.8447Z" fill="#DADBDC"/>
<path d="M170.135 90.0692H98.3404C96.9182 90.0692 95.7607 88.5944 95.7607 86.7869C95.7607 84.9794 96.9182 83.5046 98.3404 83.5046H170.135C171.557 83.5046 172.715 84.9794 172.715 86.7869C172.715 88.5944 171.557 90.0692 170.135 90.0692Z" fill="#DADBDC"/>
<path d="M170.135 104.615H98.3404C96.9182 104.615 95.7607 103.14 95.7607 101.332C95.7607 99.5248 96.9182 98.05 98.3404 98.05H170.135C171.557 98.05 172.715 99.5248 172.715 101.332C172.715 103.14 171.557 104.615 170.135 104.615Z" fill="#DADBDC"/>
<path d="M149.547 119.16H98.3404C96.9182 119.16 95.7607 117.685 95.7607 115.878C95.7607 114.07 96.9182 112.595 98.3404 112.595H149.547C150.969 112.595 152.127 114.07 152.127 115.878C152.127 117.685 150.969 119.16 149.547 119.16Z" fill="#DADBDC"/>
<path d="M132.827 204.679C149.752 204.679 163.473 190.928 163.473 173.965C163.473 157.002 149.752 143.251 132.827 143.251C115.901 143.251 102.181 157.002 102.181 173.965C102.181 190.928 115.901 204.679 132.827 204.679Z" fill="#FFCC3D"/>
<path d="M124.675 174.604C126.259 177.711 127.842 180.822 129.426 183.929C129.879 184.824 131.211 184.541 131.476 183.659C133.553 176.717 137.412 170.391 142.611 165.359C143.652 164.352 142.064 162.765 141.023 163.768C135.55 169.064 131.499 175.759 129.309 183.061L131.359 182.792C129.776 179.685 128.192 176.573 126.608 173.466C125.953 172.176 124.015 173.313 124.67 174.599H124.675V174.604Z" fill="white"/>
<path d="M50.211 136.813L42.7817 139.353L42.665 128.602L49.4259 128.526L50.211 136.813Z" fill="#F3A3A6"/>
<path d="M43.5348 131.57C47.6379 131.57 50.9642 128.236 50.9642 124.124C50.9642 120.012 47.6379 116.678 43.5348 116.678C39.4317 116.678 36.1055 120.012 36.1055 124.124C36.1055 128.236 39.4317 131.57 43.5348 131.57Z" fill="#F3A3A6"/>
<path d="M45.5673 123.364C44.3246 123.342 43.4946 122.092 42.9966 120.945C42.4987 119.803 41.9872 118.486 40.8342 118.023C39.8876 117.645 38.2546 120.284 37.5009 119.596C36.7158 118.877 37.4336 115.127 38.2501 114.448C39.0666 113.769 40.1927 113.625 41.2515 113.562C43.8401 113.414 46.4421 113.594 48.9859 114.097C50.5561 114.408 52.1802 114.884 53.3242 116.008C54.7733 117.434 55.1636 119.605 55.2892 121.638C55.4193 123.715 55.3206 125.896 54.3336 127.73C53.3421 129.56 51.247 130.927 49.2147 130.486C48.9994 129.385 49.1923 128.252 49.2596 127.128C49.3269 126.008 49.2282 124.798 48.5373 123.913C47.8464 123.027 46.3838 122.69 45.5987 123.49" fill="#2F2E43"/>
<path d="M54.7331 125.842C55.4689 125.289 56.3527 124.821 57.2679 124.924C58.2594 125.032 59.1028 125.842 59.3675 126.804C59.6322 127.766 59.3585 128.832 58.7574 129.627C58.1562 130.423 57.2545 130.954 56.2944 131.224C55.7381 131.381 55.1324 131.448 54.5986 131.224C53.8134 130.895 53.3828 129.902 53.6789 129.101" fill="#2F2E43"/>
<path d="M27.0883 196.186C26.6217 198.636 27.5504 200.862 29.17 201.154C30.785 201.446 32.4764 199.693 32.943 197.242C33.1449 196.267 33.1 195.255 32.8129 194.297L38.5284 155.895L30.8299 154.532L28.2951 193.483C27.676 194.279 27.2588 195.205 27.0883 196.19V196.186Z" fill="#F3A3A6"/>
<path d="M42.647 134.42L37.4025 134.479C33.7013 135.081 32.7143 137.078 31.9158 140.747C30.691 146.345 29.1297 153.804 29.4573 153.907C29.9822 154.078 38.9548 158.188 43.495 157.172L42.647 134.42Z" fill="#FFCC3D"/>
<path d="M49.0877 256.472L42.1074 256.55L42.218 266.473L49.1983 266.395L49.0877 256.472Z" fill="#F3A3A6"/>
<path d="M35.4683 272.559C34.7325 272.568 34.082 272.559 33.5885 272.519C31.7312 272.371 29.9501 271.017 29.0484 270.226C28.6446 269.871 28.51 269.295 28.7119 268.801C28.8555 268.445 29.1516 268.176 29.5194 268.063L34.405 266.606L42.2785 261.152L42.3683 261.31C42.4042 261.368 43.1982 262.767 43.4674 263.715C43.5706 264.075 43.5482 264.376 43.4001 264.61C43.2969 264.772 43.1534 264.866 43.0367 264.925C43.1803 265.073 43.6334 265.374 45.0242 265.581C47.0475 265.882 47.4558 263.774 47.4692 263.684L47.4827 263.612L47.541 263.571C48.4966 262.937 49.0843 262.65 49.2907 262.708C49.4208 262.744 49.6316 262.807 50.2687 268.526C50.327 268.706 50.7442 270.019 50.484 271.282C50.2014 272.658 44.2211 272.249 43.0278 272.155C42.9919 272.159 38.5235 272.528 35.4593 272.559H35.4683Z" fill="#333333"/>
<path d="M68.8728 248.44L62.9912 252.208L68.3243 260.569L74.2059 256.801L68.8728 248.44Z" fill="#F3A3A6"/>
<path d="M61.2428 270.909C60.4218 270.918 59.6681 270.828 59.1298 270.738C58.6004 270.648 58.1831 270.235 58.0934 269.704C58.0261 269.322 58.1383 268.94 58.3895 268.652L61.7632 264.826L65.5632 256.022L65.7247 256.107C65.783 256.139 67.1962 256.903 67.9274 257.564C68.2056 257.816 68.3447 258.081 68.3447 258.36C68.3447 258.553 68.2729 258.711 68.2011 258.819C68.403 258.868 68.9458 258.882 70.2334 258.32C72.1087 257.501 71.3415 255.496 71.3057 255.415L71.2787 255.348L71.3101 255.285C71.7857 254.242 72.1356 253.684 72.3375 253.621C72.4676 253.585 72.6785 253.522 76.2406 258.036C76.3842 258.158 77.434 259.048 77.8781 260.258C78.3626 261.575 73.0777 264.399 72.01 264.952C71.9786 264.979 66.4559 269.093 64.1859 270.271C63.2841 270.738 62.2119 270.891 61.2338 270.9L61.2428 270.909Z" fill="#333333"/>
<path d="M53.2933 173.412L33.7509 173.628L32.1807 191.865L40.6867 259.102L50.6643 258.99L46.2453 220.151L62.8178 255.078L71.6155 248.756L58.6141 216.122C58.6141 216.122 62.8133 187.521 59.1883 180.449C55.5634 173.376 53.2978 173.403 53.2978 173.403V173.412H53.2933Z" fill="#462A0B"/>
<path d="M63.0237 174.415L31.9873 174.761L40.8523 134.443L54.3786 134.29L63.0237 174.415Z" fill="#FFCC3D"/>
<path d="M66.0565 195.754C66.577 198.196 65.6976 200.439 64.0871 200.768C62.4765 201.096 60.7492 199.383 60.2288 196.941C60.0045 195.97 60.0269 194.958 60.2916 193.992L53.7236 155.724L61.3908 154.191L64.7869 193.079C65.424 193.861 65.8591 194.779 66.0565 195.759V195.754Z" fill="#F3A3A6"/>
<path d="M49.1339 134.348L54.3784 134.29C58.0931 134.812 59.1205 136.785 60.0043 140.436C61.3502 146.007 63.0774 153.426 62.7544 153.539C62.2295 153.718 53.3556 158.026 48.793 157.113L49.1384 134.348H49.1339Z" fill="#FFCC3D"/>
<path d="M96.4919 272.559C96.4919 272.802 96.2945 273 96.0523 273H0.43966C0.197398 273 0 272.802 0 272.559C0 272.316 0.197398 272.119 0.43966 272.119H96.0523C96.2945 272.119 96.4919 272.316 96.4919 272.559Z" fill="#3F3D58"/>
</g>
<defs>
<clipPath id="clip0_1787_2974">
<rect width="199" height="273" fill="white"/>
</clipPath>
</defs>
</svg>
