<svg width="287" height="154" viewBox="0 0 287 154" fill="none" xmlns="http://www.w3.org/2000/svg">
<g clip-path="url(#clip0_1787_2793)">
<path d="M285.142 153.602H125.336C124.844 153.601 124.371 153.404 124.023 153.052C123.675 152.701 123.479 152.224 123.479 151.727V1.87547C123.479 1.37827 123.675 0.901611 124.023 0.550032C124.371 0.198453 124.844 0.000650735 125.336 0H285.142C285.635 0.000650735 286.107 0.198453 286.455 0.550032C286.803 0.901611 286.999 1.37827 287 1.87547V151.726C286.999 152.224 286.803 152.7 286.455 153.052C286.107 153.403 285.635 153.602 285.142 153.602ZM125.336 0.748713C125.041 0.749363 124.758 0.868025 124.549 1.07873C124.341 1.28944 124.223 1.57503 124.222 1.87301V151.726C124.223 152.024 124.341 152.31 124.549 152.521C124.758 152.731 125.041 152.85 125.336 152.851H285.142C285.438 152.85 285.72 152.731 285.929 152.521C286.138 152.31 286.255 152.024 286.256 151.726V1.87547C286.255 1.57749 286.138 1.2919 285.929 1.08119C285.72 0.870485 285.438 0.751824 285.142 0.751174L125.336 0.748713Z" fill="#E6E6E6"/>
<path d="M200.848 38.9392C200.513 38.9392 200.193 39.0734 199.956 39.3121C199.72 39.5509 199.587 39.8748 199.587 40.2125C199.587 40.5502 199.72 40.874 199.956 41.1128C200.193 41.3516 200.513 41.4858 200.848 41.4858H270.042C270.376 41.4858 270.697 41.3516 270.934 41.1128C271.17 40.874 271.303 40.5502 271.303 40.2125C271.303 39.8748 271.17 39.5509 270.934 39.3121C270.697 39.0734 270.376 38.9392 270.042 38.9392H200.848Z" fill="#E6E6E6"/>
<path d="M200.848 46.5796C200.513 46.5796 200.193 46.7137 199.956 46.9525C199.72 47.1913 199.587 47.5152 199.587 47.8529C199.587 48.1906 199.72 48.5144 199.956 48.7532C200.193 48.992 200.513 49.1261 200.848 49.1261H236.173C236.507 49.1261 236.828 48.992 237.064 48.7532C237.301 48.5144 237.434 48.1906 237.434 47.8529C237.434 47.5152 237.301 47.1913 237.064 46.9525C236.828 46.7137 236.507 46.5796 236.173 46.5796H200.848Z" fill="#E6E6E6"/>
<path d="M140.369 83.5601C140.035 83.5601 139.714 83.6942 139.478 83.933C139.241 84.1718 139.108 84.4956 139.108 84.8333C139.108 85.171 139.241 85.4949 139.478 85.7337C139.714 85.9725 140.035 86.1066 140.369 86.1066H270.108C270.443 86.1066 270.764 85.9725 271 85.7337C271.237 85.4949 271.369 85.171 271.369 84.8333C271.369 84.4956 271.237 84.1718 271 83.933C270.764 83.6942 270.443 83.5601 270.108 83.5601H140.369Z" fill="#E6E6E6"/>
<path d="M140.369 91.2004C140.035 91.2004 139.714 91.3346 139.478 91.5734C139.241 91.8122 139.108 92.136 139.108 92.4737C139.108 92.8114 139.241 93.1353 139.478 93.3741C139.714 93.6128 140.035 93.747 140.369 93.747H236.239C236.574 93.747 236.895 93.6128 237.131 93.3741C237.367 93.1353 237.5 92.8114 237.5 92.4737C237.5 92.136 237.367 91.8122 237.131 91.5734C236.895 91.3346 236.574 91.2004 236.239 91.2004H140.369Z" fill="#E6E6E6"/>
<path d="M140.369 98.668C140.035 98.668 139.714 98.8021 139.478 99.0409C139.241 99.2797 139.108 99.6035 139.108 99.9412C139.108 100.279 139.241 100.603 139.478 100.842C139.714 101.08 140.035 101.215 140.369 101.215H270.108C270.443 101.215 270.764 101.08 271 100.842C271.237 100.603 271.369 100.279 271.369 99.9412C271.369 99.6035 271.237 99.2797 271 99.0409C270.764 98.8021 270.443 98.668 270.108 98.668H140.369Z" fill="#E6E6E6"/>
<path d="M140.369 106.308C140.035 106.308 139.714 106.442 139.478 106.681C139.241 106.92 139.108 107.244 139.108 107.581C139.108 107.919 139.241 108.243 139.478 108.482C139.714 108.721 140.035 108.855 140.369 108.855H236.239C236.574 108.855 236.895 108.721 237.131 108.482C237.367 108.243 237.5 107.919 237.5 107.581C237.5 107.244 237.367 106.92 237.131 106.681C236.895 106.442 236.574 106.308 236.239 106.308H140.369Z" fill="#E6E6E6"/>
<path d="M183.36 65.7658H83.0547C82.5622 65.7653 82.0901 65.5675 81.7419 65.2159C81.3937 64.8643 81.1978 64.3876 81.1973 63.8904V19.4429C81.1978 18.9456 81.3937 18.4689 81.7419 18.1173C82.0901 17.7657 82.5622 17.5679 83.0547 17.5674H183.36C183.853 17.5679 184.325 17.7657 184.673 18.1173C185.021 18.4689 185.217 18.9456 185.218 19.4429V63.8904C185.217 64.3876 185.021 64.8643 184.673 65.2159C184.325 65.5675 183.853 65.7653 183.36 65.7658Z" fill="#FFCC3D"/>
<path d="M269.307 136.035H231.286C230.794 136.034 230.322 135.836 229.973 135.485C229.625 135.133 229.429 134.657 229.429 134.159V128.008C229.429 127.511 229.625 127.034 229.973 126.683C230.322 126.331 230.794 126.133 231.286 126.133H269.307C269.799 126.133 270.272 126.331 270.62 126.683C270.968 127.034 271.164 127.511 271.164 128.008V134.159C271.164 134.657 270.968 135.133 270.62 135.485C270.272 135.836 269.799 136.034 269.307 136.035Z" fill="#FFCC3D"/>
<path d="M43.994 75.2261C42.3555 73.991 41.8746 71.6831 42.92 70.0711C43.0238 69.9132 43.1413 69.765 43.271 69.628L43.3757 36.7915L48.2097 37.7028L48.422 69.9983C49.5233 71.2883 49.7457 73.1681 48.8537 74.5436C47.8084 76.1556 45.6326 76.4612 43.994 75.2261Z" fill="#FFB8B8"/>
<path d="M69.1335 148.724L74.117 148.724L76.488 129.315L69.1328 129.316L69.1335 148.724Z" fill="#FFB8B8"/>
<path d="M67.8623 147.081L77.6767 147.081H77.6771C79.3358 147.081 80.9266 147.747 82.0995 148.931C83.2725 150.115 83.9314 151.721 83.9316 153.396V153.601L67.8626 153.602L67.8623 147.081Z" fill="#333333"/>
<path d="M22.7937 148.724L27.7775 148.724L30.1481 129.315L22.793 129.316L22.7937 148.724Z" fill="#FFB8B8"/>
<path d="M21.5225 147.081L31.3368 147.081H31.3372C32.996 147.081 34.5868 147.747 35.7597 148.931C36.9326 150.115 37.5916 151.721 37.5917 153.396V153.601L21.5228 153.602L21.5225 147.081Z" fill="#333333"/>
<path d="M68.8424 143.303L68.4247 140.773C67.9957 140.621 67.6311 140.326 67.3918 139.936C66.9432 139.22 66.8718 138.213 67.1792 136.942L63.8168 108.27L46.2619 89.8788L35.0001 117.306L30.542 139.011V142.146L21.641 143.3L22.046 140.345C21.7055 140.197 21.4218 139.942 21.2378 139.618C20.7264 138.758 20.7334 137.426 21.2585 135.659L21.2813 135.582L21.2522 135.318C21.2318 135.133 21.3657 117.405 26.5851 108.621L31.8124 81.9532C31.6766 81.5776 31.0064 79.391 32.2355 75.696C33.4485 72.0496 36.841 66.1753 46.1144 58.8977L46.1463 58.8729L46.1858 58.8645C46.2885 58.843 56.5165 56.7898 61.8061 63.7744L61.8419 63.8215V63.8811C61.8419 64.3129 61.8327 74.3617 61.0458 76.5914L73.5977 99.8954C73.8421 100.157 76.0365 102.716 75.2571 109.443L77.2848 132.374C77.5168 132.822 79.6157 137.034 77.3023 138.701L77.7171 141.596L68.8424 143.303Z" fill="#462A0B"/>
<path d="M47.845 46.9395C45.4882 46.9395 42.3563 46.0984 40.4391 42.2214L40.4014 42.1452L45.1246 32.0357C45.7365 30.7259 46.8318 29.71 48.1761 29.2052C49.5204 28.7005 51.0069 28.747 52.3177 29.3349C53.6284 29.9227 54.6593 31.0052 55.1896 32.3508C55.72 33.6963 55.7078 35.198 55.1557 36.5345L51.0722 46.419L51.0011 46.4456C49.9812 46.7763 48.9162 46.943 47.845 46.9395Z" fill="#FFCC3D"/>
<path d="M60.928 66.983L46.0381 59.8834L48.0848 34.6703L51.8162 30.0654L52.5391 29.9091C55.8611 29.191 59.3129 29.384 62.536 30.4682L62.6069 30.4921L68.736 43.6944C68.7745 43.7603 73.1945 51.64 67.0842 55.7944L60.928 66.983Z" fill="#FFCC3D"/>
<path d="M81.3984 58.948C81.2207 59.0228 81.0491 59.1116 80.8852 59.2136L65.1949 51.9666L64.7924 47.7538L58.4163 47.5361L58.4111 55.064C58.4107 55.6722 58.6057 56.2641 58.9667 56.7508C59.3278 57.2376 59.8355 57.5929 60.4136 57.7635L79.2551 63.3235C79.4486 64.0464 79.8555 64.6927 80.4216 65.1764C80.9878 65.6601 81.6864 65.9583 82.4245 66.0313C83.1626 66.1043 83.9052 65.9487 84.5535 65.5852C85.2019 65.2216 85.7253 64.6674 86.0541 63.9962C86.3829 63.325 86.5015 62.5686 86.3942 61.8276C86.2868 61.0867 85.9586 60.3963 85.4532 59.8483C84.9478 59.3002 84.2891 58.9206 83.5648 58.7598C82.8405 58.599 82.0848 58.6646 81.3984 58.948Z" fill="#FFB8B8"/>
<path d="M62.2064 49.5515C60.4185 49.5515 58.4007 48.9272 56.464 46.9716L56.4043 46.9114L57.7129 35.8118C57.8825 34.3738 58.6026 33.0598 59.7194 32.1511C60.8362 31.2424 62.2608 30.8111 63.6885 30.9495C65.1162 31.0878 66.4335 31.7849 67.3587 32.8915C68.2838 33.9982 68.7433 35.4265 68.6388 36.8708L67.8663 47.5522L67.8072 47.6C67.7693 47.6308 65.3417 49.5515 62.2064 49.5515Z" fill="#FFCC3D"/>
<path d="M66.9913 21.2823C69.6361 16.397 67.858 10.2718 63.0198 7.60127C58.1815 4.93073 52.1153 6.72614 49.4705 11.6114C46.8257 16.4967 48.6038 22.6219 53.442 25.2925C58.2803 27.963 64.3465 26.1676 66.9913 21.2823Z" fill="#FFB8B8"/>
<path d="M68.3915 11.1057C67.896 8.19627 65.583 5.78439 62.8275 4.79755C60.0719 3.8107 56.9645 4.13163 54.2661 5.26806C53.8168 5.45817 53.3774 5.67148 52.9497 5.90715C51.9634 4.0089 49.5454 2.90794 47.3338 3.02677C44.6619 3.17032 42.2489 4.5978 39.9284 5.94316C37.6079 7.28851 35.1178 8.62708 32.4427 8.56443C27.6085 8.45127 24.012 3.92581 19.3634 2.5809C17.2941 1.98222 15.0922 2.04278 13.0582 2.75432C11.0242 3.46586 9.25713 4.79373 7.99811 6.55674C6.73909 8.31976 6.04944 10.4321 6.02324 12.6055C5.99703 14.7789 6.63556 16.9075 7.8517 18.7009C9.83514 15.1119 14.493 13.8997 18.5347 14.3883C22.5761 14.8769 26.3428 16.6657 30.3023 17.6185C34.2618 18.5713 38.8475 18.5304 41.9144 15.8283C43.6542 14.2956 44.6757 12.1049 46.1902 10.3453C47.2147 9.15516 48.6731 8.1502 50.1633 7.91365C48.6955 9.24836 47.5749 10.9267 46.9 12.8012C45.7051 16.2292 46.3439 20.3452 48.8228 22.9801C51.4802 25.8049 55.6512 26.5578 59.5095 26.5121L59.5902 26.4292C58.4089 24.6438 57.4766 22.1681 58.7772 20.4693C60.0612 18.7924 62.5934 19.0395 64.5597 18.2974C67.2983 17.264 68.8867 14.0152 68.3915 11.1057Z" fill="#2F2E41"/>
<path d="M95.341 154H0.34796C0.255675 154 0.16717 153.963 0.101915 153.897C0.0366597 153.831 0 153.742 0 153.649C0 153.556 0.0366597 153.466 0.101915 153.4C0.16717 153.334 0.255675 153.297 0.34796 153.297H95.341C95.4333 153.297 95.5218 153.334 95.587 153.4C95.6523 153.466 95.689 153.556 95.689 153.649C95.689 153.742 95.6523 153.831 95.587 153.897C95.5218 153.963 95.4333 154 95.341 154Z" fill="#CCCCCC"/>
<path d="M128.707 33.1562C128.271 33.1577 127.919 33.7288 127.92 34.432C127.921 35.1333 128.273 35.7014 128.707 35.7028H165.893C166.329 35.7014 166.681 35.1302 166.681 34.427C166.68 33.7258 166.328 33.1576 165.893 33.1562H128.707Z" fill="white"/>
<path d="M128.707 40.5347C128.271 40.5361 127.919 41.1073 127.92 41.8105C127.921 42.5117 128.273 43.0798 128.707 43.0812H165.893C166.329 43.0798 166.681 42.5086 166.681 41.8054C166.68 41.1042 166.328 40.5361 165.893 40.5347H128.707Z" fill="white"/>
<path d="M128.707 47.8235C128.271 47.8249 127.919 48.3961 127.92 49.0993C127.921 49.8005 128.273 50.3686 128.707 50.37H144.708C145.144 50.3686 145.496 49.7974 145.496 49.0942C145.495 48.393 145.143 47.8249 144.708 47.8235H128.707Z" fill="white"/>
<path d="M109.826 51.8555C115.399 51.8555 119.917 47.2937 119.917 41.6665C119.917 36.0393 115.399 31.4775 109.826 31.4775C104.253 31.4775 99.7354 36.0393 99.7354 41.6665C99.7354 47.2937 104.253 51.8555 109.826 51.8555Z" fill="white"/>
</g>
<defs>
<clipPath id="clip0_1787_2793">
<rect width="287" height="154" fill="white"/>
</clipPath>
</defs>
</svg>
