<svg width="24" height="25" viewBox="0 0 24 25" fill="none" xmlns="http://www.w3.org/2000/svg">
<path d="M20.7196 18.74L19.7796 17.8C20.2696 17.06 20.5596 16.17 20.5596 15.21C20.5596 12.61 18.4496 10.5 15.8496 10.5C13.2496 10.5 11.1396 12.61 11.1396 15.21C11.1396 17.81 13.2496 19.92 15.8496 19.92C16.8096 19.92 17.6896 19.63 18.4396 19.14L19.3796 20.08C19.5696 20.27 19.8096 20.36 20.0596 20.36C20.3096 20.36 20.5496 20.27 20.7396 20.08C21.0896 19.72 21.0896 19.12 20.7196 18.74Z" fill="white"/>
<path d="M19.5799 4.52V6.74C19.5799 7.55 19.0799 8.56 18.5799 9.07L18.3999 9.23C18.2599 9.36 18.0499 9.39 17.8699 9.33C17.6699 9.26 17.4699 9.21 17.2699 9.16C16.8299 9.05 16.3599 9 15.8799 9C12.4299 9 9.62992 11.8 9.62992 15.25C9.62992 16.39 9.93992 17.51 10.5299 18.47C11.0299 19.31 11.7299 20.01 12.4899 20.48C12.7199 20.63 12.8099 20.95 12.6099 21.13C12.5399 21.19 12.4699 21.24 12.3999 21.29L10.9999 22.2C9.69992 23.01 7.90992 22.1 7.90992 20.48V15.13C7.90992 14.42 7.50992 13.51 7.10992 13.01L3.31992 8.97C2.81992 8.46 2.41992 7.55 2.41992 6.95V4.62C2.41992 3.41 3.31992 2.5 4.40992 2.5H17.5899C18.6799 2.5 19.5799 3.41 19.5799 4.52Z" fill="white"/>
</svg>
