<svg width="92" height="92" viewBox="0 0 92 92" fill="none" xmlns="http://www.w3.org/2000/svg">
<rect width="92" height="92" rx="4" fill="#FFF9EA"/>
<path d="M62.7242 44.825C61.2992 44.45 59.6242 44.25 57.6242 44.25C54.8492 44.25 53.8242 44.925 52.3992 46C52.3242 46.05 52.2492 46.125 52.1742 46.2L49.7992 48.725C47.8242 50.85 44.1992 50.85 42.1992 48.725L39.8242 46.225C39.7492 46.125 39.6742 46.05 39.5992 46C38.1492 44.925 37.1242 44.25 34.3742 44.25C32.3742 44.25 30.6992 44.425 29.2742 44.825C23.3242 46.425 23.3242 51.15 23.3242 55.3V57.625C23.3242 63.9 23.3242 71 36.6992 71H55.2992C64.1742 71 68.6742 66.5 68.6742 57.625V55.3C68.6742 51.15 68.6742 46.425 62.7242 44.825Z" fill="#5B360F"/>
<path opacity="0.4" d="M52.9746 21H39.0246C27.9746 21 27.9746 26.875 27.9746 32.05V46.525C27.9746 47.075 28.2246 47.575 28.6496 47.9C29.0746 48.225 29.6496 48.35 30.1746 48.2C31.2996 47.9 32.6996 47.75 34.3746 47.75C36.0496 47.75 36.3996 47.95 37.3996 48.7L39.6746 51.1C41.2996 52.85 43.6246 53.85 46.0246 53.85C48.4246 53.85 50.7246 52.85 52.3746 51.1L54.6496 48.7C55.6496 47.95 55.9996 47.75 57.6746 47.75C59.3496 47.75 60.7496 47.9 61.8746 48.2C62.3996 48.35 62.9496 48.225 63.3996 47.9C63.8246 47.575 64.0746 47.05 64.0746 46.525V32.05C64.0246 26.875 64.0246 21 52.9746 21Z" fill="#FFE59E"/>
<path d="M49.875 40.775H42.125C41.15 40.775 40.375 40 40.375 39.025C40.375 38.05 41.15 37.275 42.125 37.275H49.875C50.85 37.275 51.625 38.05 51.625 39.025C51.625 39.975 50.825 40.775 49.875 40.775Z" fill="#292D32"/>
<path d="M51.8258 33.8H40.1758C39.2008 33.8 38.4258 33.025 38.4258 32.05C38.4258 31.075 39.2008 30.3 40.1758 30.3H51.8008C52.7758 30.3 53.5508 31.075 53.5508 32.05C53.5508 33 52.7758 33.8 51.8258 33.8Z" fill="#292D32"/>
</svg>
