<svg width="193" height="200" viewBox="0 0 193 200" fill="none" xmlns="http://www.w3.org/2000/svg">
<g clip-path="url(#clip0_1787_2909)">
<path d="M176.198 171.106L167.398 179.203L174.392 167.476C168.882 157.49 159.871 148.861 159.871 148.861C159.871 148.861 141.176 166.761 141.176 180.831C141.176 194.902 149.546 199.815 159.871 199.815C170.196 199.815 178.566 194.902 178.566 180.831C178.566 177.699 177.638 174.378 176.198 171.106Z" fill="#F2F2F2"/>
<path d="M165.136 179.641V180.334C165.094 188.396 163.734 194.686 161.064 199.116C161.026 199.181 160.985 199.243 160.947 199.308L160.649 199.126L160.363 198.947C163.325 194.164 164.373 187.404 164.411 180.372C164.414 180.146 164.417 179.916 164.414 179.685C164.404 176.709 164.222 173.698 163.93 170.772C163.909 170.546 163.885 170.316 163.861 170.085C163.456 166.226 162.871 162.539 162.274 159.335C162.232 159.109 162.188 158.882 162.143 158.659C161.109 153.241 160.054 149.316 159.814 148.448C159.786 148.341 159.769 148.283 159.766 148.269L160.092 148.176L160.095 148.173L160.425 148.08C160.429 148.094 160.487 148.29 160.583 148.654C160.951 150.013 161.906 153.704 162.844 158.573C162.885 158.793 162.93 159.019 162.971 159.246C163.459 161.845 163.936 164.75 164.314 167.799C164.411 168.564 164.497 169.32 164.572 170.065C164.6 170.295 164.624 170.525 164.644 170.752C164.96 173.914 165.124 176.877 165.136 179.641Z" fill="white"/>
<path d="M162.844 158.573C162.614 158.604 162.381 158.635 162.144 158.659C161.5 158.725 160.853 158.758 160.206 158.758C157.448 158.762 154.724 158.147 152.235 156.959C152.091 157.141 151.947 157.323 151.799 157.509C154.417 158.786 157.292 159.448 160.206 159.445C160.897 159.445 161.587 159.408 162.274 159.335C162.508 159.311 162.741 159.28 162.972 159.246C164.872 158.974 166.719 158.414 168.451 157.588C168.304 157.399 168.159 157.213 168.019 157.031C166.379 157.797 164.636 158.317 162.844 158.573Z" fill="white"/>
<path d="M164.572 170.065C164.335 170.079 164.098 170.085 163.861 170.085C163.789 170.089 163.714 170.089 163.641 170.089C160.653 170.089 157.709 169.367 155.06 167.984C152.411 166.601 150.136 164.599 148.428 162.147C148.291 162.35 148.154 162.552 148.02 162.758C149.799 165.239 152.144 167.26 154.861 168.654C157.578 170.048 160.587 170.775 163.641 170.776C163.738 170.776 163.834 170.776 163.93 170.772C164.17 170.769 164.408 170.762 164.645 170.752C168.313 170.564 171.849 169.324 174.831 167.181C174.721 166.978 174.611 166.776 174.498 166.573C171.6 168.677 168.15 169.891 164.572 170.065Z" fill="white"/>
<path d="M165.136 179.641C164.895 179.662 164.655 179.675 164.414 179.686C164.157 179.696 163.899 179.703 163.641 179.703C159.626 179.698 155.719 178.394 152.507 175.985C149.295 173.576 146.951 170.192 145.824 166.34C145.67 166.618 145.515 166.892 145.367 167.171C146.636 171.014 149.085 174.36 152.366 176.733C155.646 179.106 159.592 180.385 163.641 180.389C163.899 180.389 164.157 180.386 164.411 180.372C164.655 180.365 164.895 180.352 165.136 180.334C169.994 179.955 174.525 177.744 177.813 174.151C177.741 173.897 177.659 173.646 177.576 173.392C174.4 177.012 169.938 179.254 165.136 179.641Z" fill="white"/>
<path d="M144.554 43.2442L48.8406 31.0492C48.5827 31.0162 48.323 30.9993 48.0631 30.9988C47.8069 30.9983 47.5509 31.0145 47.2967 31.0471C47.043 31.0797 46.7917 31.1289 46.5445 31.1943C46.2943 31.261 46.0487 31.3439 45.8091 31.4423C45.5745 31.5385 45.3459 31.6489 45.1247 31.7729C44.9004 31.8978 44.6838 32.0358 44.4758 32.1862C44.2631 32.3405 44.0593 32.5068 43.8654 32.6842C43.6652 32.8668 43.475 33.06 43.2955 33.2629C43.1113 33.4718 42.9379 33.69 42.7761 33.9167C42.6126 34.1462 42.4591 34.385 42.3158 34.633C42.1724 34.8818 42.0394 35.1405 41.9167 35.4092C41.794 35.6778 41.682 35.9555 41.5808 36.2424C41.4761 36.5389 41.3843 36.8419 41.3054 37.1517C41.2266 37.4614 41.1607 37.7764 41.1077 38.0969C41.0559 38.4171 41.0162 38.7425 40.9886 39.0731C40.9611 39.4038 40.9473 39.7384 40.9473 40.077C40.9484 40.4154 40.9622 40.7526 40.9886 41.0888C41.0151 41.4249 41.0548 41.7584 41.1077 42.089C41.1612 42.421 41.2274 42.7497 41.3062 43.0751C41.3851 43.4005 41.4769 43.7222 41.5817 44.0402C41.6828 44.3474 41.7948 44.6476 41.9175 44.9408C42.0402 45.2343 42.1732 45.5197 42.3166 45.7972C42.4599 46.0746 42.6134 46.3441 42.7769 46.6056C42.9401 46.8682 43.1132 47.1208 43.2963 47.3636C43.4794 47.6063 43.6694 47.8379 43.8662 48.0584C44.0631 48.2774 44.2665 48.4841 44.4766 48.6783C44.6867 48.8726 44.903 49.054 45.1255 49.2226C45.3456 49.3896 45.574 49.5452 45.81 49.6888C46.0476 49.8337 46.293 49.9652 46.5453 50.0827C46.79 50.1967 47.0412 50.2962 47.2976 50.3807C47.5487 50.4635 47.8046 50.531 48.0639 50.5828C48.3207 50.6339 48.5803 50.6691 48.8414 50.6882L144.555 57.685C144.833 57.7053 145.113 57.6773 145.382 57.6024C145.519 57.5643 145.652 57.5151 145.781 57.4552C145.915 57.3927 146.045 57.3202 146.168 57.2382C146.293 57.1552 146.413 57.0641 146.526 56.9654C146.645 56.862 146.758 56.7515 146.864 56.6348C146.976 56.5115 147.081 56.3823 147.179 56.248C147.281 56.1096 147.379 55.9622 147.473 55.8057C147.566 55.6492 147.655 55.486 147.739 55.316C147.822 55.1459 147.9 54.9693 147.973 54.7861C148.046 54.6031 148.114 54.4138 148.176 54.2182C148.238 54.0226 148.294 53.8212 148.345 53.614C148.399 53.3996 148.445 53.1814 148.484 52.9593C148.523 52.7372 148.556 52.5118 148.584 52.2831C148.611 52.0544 148.631 51.8227 148.644 51.5879C148.657 51.3532 148.664 51.1158 148.664 50.8758C148.663 50.6361 148.656 50.3975 148.644 50.16C148.631 49.9225 148.612 49.6868 148.584 49.4528C148.557 49.2189 148.524 48.9869 148.484 48.7568C148.445 48.5268 148.398 48.2992 148.345 48.074C148.294 47.8564 148.238 47.6436 148.176 47.4359C148.114 47.2309 148.047 47.0289 147.973 46.83C147.899 46.6311 147.821 46.4382 147.739 46.2514C147.655 46.0648 147.567 45.8838 147.473 45.7083C147.379 45.5328 147.281 45.3658 147.179 45.2073C147.078 45.0489 146.973 44.8987 146.864 44.7568C146.755 44.6149 146.643 44.4821 146.526 44.3584C146.413 44.2372 146.294 44.1221 146.168 44.0137C146.045 43.9075 145.916 43.8091 145.781 43.719C145.653 43.634 145.52 43.558 145.382 43.4917C145.25 43.4283 145.113 43.3753 144.972 43.333C144.835 43.292 144.695 43.2623 144.554 43.2442Z" fill="#FFCC3D"/>
<path d="M144.554 70.7484L48.8406 68.4574C48.3214 68.4446 47.8026 68.4975 47.2967 68.6149C47.0415 68.6743 46.7903 68.7495 46.5445 68.8402C46.2931 68.9328 46.0475 69.0404 45.8091 69.1625C45.5737 69.2831 45.3452 69.4166 45.1247 69.5626C44.8999 69.7114 44.6833 69.8721 44.4758 70.0441C44.2629 70.2207 44.0591 70.408 43.8654 70.6054C43.6682 70.806 43.4783 71.0192 43.2955 71.2452C43.1127 71.4717 42.9395 71.7077 42.776 71.9532C42.6125 72.1987 42.4591 72.4532 42.3157 72.7169C42.1724 72.9806 42.0394 73.2531 41.9167 73.5345C41.794 73.8158 41.682 74.1051 41.5808 74.4024C41.4761 74.7102 41.3843 75.0229 41.3054 75.3406C41.2266 75.6583 41.1607 75.9801 41.1077 76.3061C41.0559 76.632 41.0162 76.9617 40.9886 77.2951C40.961 77.6285 40.9473 77.9645 40.9473 78.3032C40.9484 78.6418 40.9621 78.9777 40.9886 79.3108C41.0151 79.6439 41.0548 79.9733 41.1077 80.299C41.1612 80.623 41.2274 80.9436 41.3062 81.2608C41.3851 81.5779 41.4769 81.8901 41.5817 82.1973C41.6828 82.4955 41.7948 82.7848 41.9175 83.0653C42.0402 83.3458 42.1732 83.6174 42.3166 83.8803C42.4599 84.1432 42.6134 84.3968 42.7769 84.6412C42.9401 84.8848 43.1132 85.119 43.2963 85.3438C43.4794 85.5686 43.6693 85.7807 43.8662 85.9799C44.06 86.1761 44.2637 86.3622 44.4766 86.5374C44.6842 86.7081 44.9008 86.8675 45.1255 87.0148C45.3461 87.1593 45.5746 87.2914 45.81 87.4103C46.0484 87.531 46.294 87.6371 46.5453 87.7282C46.7912 87.8172 47.0425 87.8908 47.2976 87.9484C47.5501 88.0059 47.8061 88.0474 48.0639 88.0724C48.3223 88.0971 48.582 88.1056 48.8414 88.0977L144.554 85.1876C144.694 85.1833 144.834 85.1671 144.972 85.1392C145.112 85.1109 145.249 85.0713 145.382 85.0206C145.519 84.968 145.653 84.905 145.781 84.8321C145.916 84.7554 146.045 84.6695 146.168 84.5751C146.294 84.4789 146.413 84.3754 146.526 84.2651C146.645 84.1494 146.758 84.0274 146.864 83.8997C146.973 83.7697 147.078 83.6298 147.179 83.4802C147.281 83.3306 147.379 83.1731 147.473 83.0078C147.566 82.8414 147.655 82.6689 147.739 82.4904C147.822 82.3118 147.9 82.1272 147.973 81.9365C148.046 81.7428 148.114 81.5457 148.176 81.3451C148.238 81.1445 148.294 80.9379 148.345 80.7251C148.399 80.5075 148.445 80.2855 148.484 80.0593C148.523 79.8331 148.556 79.6043 148.584 79.3728C148.611 79.1405 148.631 78.9063 148.644 78.6702C148.657 78.4341 148.664 78.196 148.664 77.956C148.663 77.7182 148.656 77.4807 148.644 77.2435C148.631 77.0062 148.611 76.772 148.584 76.5408C148.557 76.3088 148.524 76.0803 148.484 75.8552C148.445 75.6301 148.398 75.4073 148.345 75.1869C148.294 74.9742 148.237 74.7669 148.175 74.5653C148.113 74.3636 148.046 74.1677 147.973 73.9775C147.901 73.7874 147.823 73.6032 147.739 73.425C147.655 73.2467 147.567 73.0749 147.473 72.9096C147.379 72.744 147.281 72.5869 147.18 72.4384C147.078 72.2899 146.973 72.1506 146.864 72.0205C146.758 71.8935 146.646 71.7722 146.527 71.6572C146.414 71.5477 146.294 71.4451 146.169 71.3498C146.046 71.2561 145.916 71.171 145.781 71.0952C145.653 71.0233 145.519 70.9614 145.382 70.91C145.249 70.8601 145.112 70.8213 144.972 70.7939C144.834 70.7669 144.694 70.7517 144.554 70.7484Z" fill="#E4E4E4"/>
<path d="M144.554 96.5333L48.8406 103.529C48.5795 103.548 48.3198 103.583 48.0631 103.634C47.8038 103.686 47.5478 103.754 47.2967 103.836C47.0404 103.921 46.7892 104.02 46.5445 104.134C46.2922 104.252 46.0467 104.383 45.8091 104.528C45.5732 104.672 45.3448 104.827 45.1247 104.994C44.9019 105.164 44.6856 105.346 44.4758 105.539C44.266 105.732 44.0625 105.939 43.8654 106.159C43.6683 106.378 43.4783 106.61 43.2955 106.853C43.1127 107.098 42.9396 107.351 42.7761 107.612C42.6126 107.874 42.4591 108.143 42.3158 108.421C42.1724 108.698 42.0394 108.984 41.9167 109.277C41.794 109.57 41.682 109.87 41.5808 110.178C41.4761 110.495 41.3843 110.817 41.3054 111.143C41.2266 111.469 41.1607 111.797 41.1077 112.128C41.0559 112.459 41.0162 112.792 40.9886 113.128C40.9611 113.464 40.9473 113.801 40.9473 114.14C40.9484 114.479 40.9622 114.813 40.9886 115.144C41.0151 115.475 41.0548 115.8 41.1077 116.121C41.1612 116.442 41.2274 116.757 41.3062 117.066C41.3851 117.375 41.4769 117.678 41.5817 117.976C41.6828 118.263 41.7948 118.54 41.9175 118.809C42.0402 119.077 42.1732 119.336 42.3166 119.585C42.4599 119.834 42.6134 120.072 42.7769 120.301C42.9387 120.528 43.1121 120.746 43.2963 120.955C43.4758 121.158 43.666 121.351 43.8662 121.534C44.0601 121.711 44.2639 121.877 44.4766 122.032C44.6846 122.182 44.9013 122.32 45.1255 122.445C45.3468 122.569 45.5753 122.679 45.81 122.776C46.0495 122.874 46.2951 122.957 46.5453 123.024C46.7926 123.089 47.0439 123.138 47.2976 123.171C47.5517 123.203 47.8077 123.22 48.0639 123.219C48.3239 123.219 48.5835 123.202 48.8414 123.169L144.554 110.977C144.695 110.958 144.835 110.929 144.972 110.888C145.113 110.845 145.25 110.792 145.382 110.729C145.52 110.663 145.653 110.587 145.781 110.502C145.916 110.412 146.045 110.313 146.168 110.207C146.294 110.099 146.413 109.984 146.526 109.862C146.641 109.738 146.754 109.606 146.864 109.464C146.973 109.322 147.078 109.172 147.179 109.013C147.281 108.855 147.379 108.688 147.473 108.512C147.566 108.338 147.655 108.157 147.739 107.969C147.822 107.781 147.9 107.589 147.973 107.391C148.046 107.192 148.114 106.989 148.176 106.781C148.238 106.573 148.294 106.361 148.345 106.143C148.399 105.918 148.445 105.69 148.484 105.46C148.523 105.23 148.556 104.998 148.584 104.764C148.611 104.53 148.631 104.294 148.644 104.057C148.657 103.819 148.664 103.58 148.664 103.34C148.663 103.102 148.656 102.865 148.643 102.63C148.631 102.396 148.611 102.164 148.584 101.935C148.557 101.706 148.524 101.48 148.484 101.258C148.445 101.036 148.398 100.817 148.345 100.603C148.294 100.396 148.238 100.194 148.176 99.9988C148.115 99.8035 148.047 99.6142 147.973 99.4309C147.9 99.2477 147.822 99.0711 147.739 98.9011C147.655 98.7324 147.566 98.5696 147.472 98.4126C147.378 98.2555 147.28 98.1081 147.179 97.9703C147.08 97.8359 146.975 97.7068 146.863 97.5835C146.757 97.4667 146.645 97.3563 146.526 97.2528C146.412 97.1542 146.293 97.0631 146.167 96.98C146.044 96.8981 145.914 96.8256 145.78 96.763C145.651 96.7032 145.518 96.654 145.381 96.6159C145.112 96.541 144.832 96.513 144.554 96.5333Z" fill="#E4E4E4"/>
<path d="M92.3844 97.8149C92.9907 98.8223 93.9461 99.5721 95.0691 99.922C96.1921 100.272 97.4046 100.198 98.4764 99.713C99.5481 99.2285 100.405 98.3675 100.883 97.2936C101.362 96.2196 101.429 95.0075 101.072 93.8873L119.622 55.8013L110.743 50.4219L94.7226 90.8769C94.6613 90.9007 94.6011 90.9256 94.5417 90.9517C94.4823 90.9778 94.4231 91.005 94.3642 91.0334C94.3053 91.0617 94.2468 91.0916 94.1887 91.1229C94.1307 91.1542 94.0731 91.1872 94.0159 91.2217C92.9248 91.8798 92.14 92.9441 91.834 94.1804C91.528 95.4167 91.7258 96.7239 92.384 97.8144L92.3844 97.8149Z" fill="#9E616A"/>
<path d="M116.082 70.4875L102.903 67.1119C102.903 67.1119 103.334 66.1399 104.033 64.5296C104.732 62.9192 105.709 60.6737 106.808 58.1242C107.907 55.5747 109.127 52.7261 110.318 49.9102C111.509 47.0944 112.667 44.3123 113.643 41.9009C114.618 39.4894 115.727 38.0452 116.841 37.2357C117.763 36.5355 118.924 36.227 120.072 36.3773C120.964 36.5101 121.817 36.8346 122.572 37.3284C122.93 37.5506 123.266 37.8055 123.576 38.0897L126.631 43.6427L116.082 70.4875Z" fill="#CCCCCC"/>
<path d="M10.6168 67.4714C10.2977 67.4949 9.98009 67.5363 9.6656 67.5954C9.34906 67.6546 9.03607 67.7313 8.72805 67.8252C8.41533 67.9206 8.108 68.0329 7.80744 68.1616C7.49983 68.2932 7.19931 68.4409 6.90712 68.6038C6.62121 68.7645 6.34177 68.9392 6.06882 69.1279C5.79586 69.3167 5.53076 69.5194 5.27353 69.7363C5.01657 69.9526 4.76718 70.1832 4.52539 70.4282C4.28359 70.6731 4.05062 70.9314 3.82647 71.2031C3.60232 71.4748 3.38988 71.7562 3.18916 72.0475C2.98843 72.3387 2.80012 72.6388 2.62423 72.9477C2.44998 73.2571 2.28702 73.5749 2.13538 73.9011C1.98374 74.2274 1.84589 74.5612 1.72182 74.9026C1.59252 75.2566 1.47934 75.6144 1.38228 75.9759C1.28523 76.3374 1.20431 76.702 1.13952 77.0695C1.07445 77.4371 1.02565 77.8071 0.993122 78.1797C0.960588 78.5522 0.944327 78.9262 0.944336 79.3018C0.944336 79.6773 0.960597 80.0481 0.993122 80.414C1.02565 80.7799 1.07444 81.1402 1.13952 81.4948C1.20431 81.8494 1.28523 82.1977 1.38228 82.5396C1.47933 82.8816 1.5921 83.2165 1.72059 83.5444C1.84576 83.8609 1.98361 84.1672 2.13415 84.4631C2.28295 84.756 2.44637 85.0413 2.62381 85.3178C2.79847 85.5891 2.98704 85.8512 3.18875 86.1031C3.38854 86.3535 3.6014 86.5931 3.82646 86.821C4.0478 87.0451 4.28112 87.257 4.52539 87.4559C4.76458 87.6506 5.01449 87.8317 5.27394 87.9985C5.78595 88.3279 6.33407 88.5974 6.90753 88.802C7.49539 89.0119 8.1063 89.1507 8.72721 89.2153C9.03865 89.2474 9.35171 89.2612 9.66477 89.2566C9.98285 89.2522 10.3004 89.2297 10.616 89.1893C10.9343 89.1487 11.2502 89.0906 11.5622 89.0153C11.8751 88.9396 12.1837 88.847 12.4865 88.7379C12.7928 88.6275 13.0931 88.501 13.386 88.359C13.6845 88.2142 13.9755 88.0545 14.2578 87.8803C14.5327 87.709 14.8004 87.5252 15.061 87.329C15.3215 87.1328 15.5739 86.9237 15.8182 86.7016C16.0625 86.4795 16.2984 86.2453 16.5258 85.999C16.7533 85.7526 16.9719 85.4942 17.1817 85.2236C17.3929 84.9533 17.5917 84.6749 17.7781 84.3883C17.9645 84.1018 18.139 83.8076 18.3017 83.5059C18.4644 83.2042 18.6149 82.8955 18.7533 82.5797C18.8917 82.264 19.0178 81.9416 19.1317 81.6126C19.2497 81.272 19.353 80.9286 19.4415 80.5822C19.53 80.2359 19.6039 79.887 19.6631 79.5357C19.7221 79.1841 19.7665 78.8308 19.7963 78.4756C19.8261 78.1204 19.841 77.7638 19.841 77.4056C19.8407 77.0474 19.8258 76.6936 19.7963 76.3442C19.7668 75.9948 19.7224 75.6504 19.6631 75.3109C19.6041 74.972 19.5303 74.6381 19.4415 74.3091C19.3527 73.9801 19.2494 73.6573 19.1317 73.3407C19.0173 73.0343 18.8912 72.7372 18.7533 72.4492C18.6135 72.1621 18.4623 71.8835 18.2996 71.6135C17.9776 71.0799 17.6031 70.5796 17.1817 70.1202C16.975 69.8943 16.7566 69.6792 16.5275 69.4759C16.3019 69.2764 16.0657 69.0892 15.8199 68.915C15.5764 68.7427 15.3236 68.5838 15.0626 68.4393C14.8018 68.2949 14.5331 68.1652 14.2578 68.0508C13.6894 67.8142 13.095 67.6457 12.487 67.5487C12.1809 67.4999 11.8723 67.4691 11.5626 67.4565C11.2472 67.4437 10.9313 67.449 10.6164 67.4722" fill="#E4E4E4"/>
<path d="M10.6168 106.322C10.2977 106.346 9.98009 106.387 9.6656 106.446C9.34907 106.505 9.03607 106.582 8.72805 106.676C8.41533 106.771 8.108 106.884 7.80744 107.012C7.49983 107.144 7.19931 107.291 6.90712 107.454C6.62121 107.615 6.34177 107.79 6.06882 107.979C5.79586 108.167 5.53076 108.37 5.27353 108.587C5.01657 108.803 4.76718 109.034 4.52539 109.279C4.28359 109.524 4.05062 109.782 3.82647 110.054C3.60232 110.325 3.38988 110.607 3.18916 110.898C2.98843 111.189 2.80012 111.489 2.62423 111.798C2.44998 112.108 2.28702 112.425 2.13538 112.752C1.98374 113.078 1.84589 113.412 1.72182 113.753C1.59252 114.107 1.47934 114.465 1.38228 114.827C1.28523 115.188 1.20431 115.553 1.13952 115.92C1.07445 116.288 1.02565 116.658 0.993122 117.03C0.960588 117.403 0.944327 117.777 0.944336 118.152C0.944336 118.528 0.960597 118.899 0.993122 119.265C1.02565 119.63 1.07444 119.991 1.13952 120.345C1.20431 120.7 1.28523 121.048 1.38228 121.39C1.47933 121.732 1.5921 122.067 1.72059 122.395C1.84576 122.712 1.98361 123.018 2.13415 123.314C2.28295 123.607 2.44637 123.892 2.62381 124.168C2.79847 124.44 2.98704 124.702 3.18875 124.954C3.38854 125.204 3.6014 125.444 3.82646 125.672C4.0478 125.896 4.28112 126.108 4.52539 126.306C4.76458 126.501 5.01449 126.682 5.27394 126.849C5.78596 127.178 6.33407 127.448 6.90753 127.653C7.49539 127.863 8.1063 128.001 8.72721 128.066C9.03865 128.098 9.35171 128.112 9.66477 128.107C9.98285 128.103 10.3004 128.08 10.616 128.04C10.9343 127.999 11.2502 127.941 11.5622 127.866C11.8751 127.79 12.1837 127.698 12.4865 127.589C12.7928 127.478 13.0931 127.352 13.386 127.21C13.6845 127.065 13.9755 126.905 14.2578 126.731C14.5327 126.56 14.8004 126.376 15.061 126.18C15.3215 125.983 15.5739 125.774 15.8182 125.552C16.0625 125.33 16.2984 125.096 16.5258 124.85C16.7533 124.603 16.9719 124.345 17.1817 124.074C17.3929 123.804 17.5917 123.525 17.7781 123.239C17.9645 122.952 18.139 122.658 18.3017 122.357C18.4644 122.055 18.6149 121.746 18.7533 121.43C18.8917 121.115 19.0178 120.792 19.1317 120.463C19.2497 120.123 19.353 119.779 19.4415 119.433C19.53 119.086 19.6039 118.738 19.6631 118.386C19.7221 118.035 19.7665 117.681 19.7963 117.326C19.8261 116.971 19.841 116.614 19.841 116.256C19.8407 115.898 19.8258 115.544 19.7963 115.195C19.7668 114.845 19.7224 114.501 19.6631 114.162C19.6041 113.823 19.5303 113.489 19.4415 113.16C19.3527 112.831 19.2494 112.508 19.1317 112.191C19.0173 111.885 18.8912 111.588 18.7533 111.3C18.6135 111.013 18.4623 110.734 18.2996 110.464C17.9776 109.93 17.6031 109.43 17.1817 108.971C16.975 108.745 16.7566 108.53 16.5275 108.326C16.3019 108.127 16.0657 107.94 15.8199 107.766C15.5764 107.593 15.3236 107.434 15.0626 107.29C14.8018 107.146 14.5331 107.016 14.2578 106.901C13.6894 106.665 13.095 106.496 12.487 106.399C12.1809 106.35 11.8723 106.32 11.5626 106.307C11.2472 106.294 10.9313 106.3 10.6164 106.323" fill="#E4E4E4"/>
<path d="M10.6185 25.3836C10.3011 25.3759 9.98353 25.3862 9.6673 25.4146C9.35238 25.4429 9.03935 25.4892 8.72976 25.5535C8.4184 25.6185 8.11103 25.7013 7.80915 25.8015C7.50263 25.9029 7.20205 26.0214 6.90883 26.1565C6.62181 26.2886 6.34199 26.4358 6.07053 26.5975C5.79639 26.7607 5.53093 26.9381 5.27524 27.129C5.01541 27.3229 4.76558 27.5298 4.52669 27.7489C4.28379 27.9718 4.0504 28.2081 3.82652 28.4578C3.60237 28.7077 3.38993 28.9686 3.18921 29.2406C2.98849 29.5125 2.80018 29.7944 2.62428 30.0862C2.4492 30.3818 2.28584 30.6848 2.1342 30.995C1.98256 31.3053 1.84471 31.6257 1.72064 31.9564C1.59216 32.2972 1.47939 32.6437 1.38234 32.9958C1.28528 33.348 1.20436 33.7046 1.13957 34.0659C1.0745 34.4282 1.02571 34.7936 0.993174 35.162C0.960641 35.5303 0.94438 35.9023 0.944389 36.2779C0.944389 36.6529 0.96065 37.0248 0.993174 37.3938C1.0257 37.7627 1.07449 38.1277 1.13957 38.4886C1.20436 38.8496 1.28529 39.2057 1.38234 39.557C1.47939 39.9083 1.59216 40.2541 1.72064 40.5944C1.84581 40.9231 1.98366 41.2428 2.1342 41.5533C2.28584 41.8627 2.44961 42.1629 2.62549 42.4539C2.80138 42.7449 2.9897 43.0255 3.19043 43.2958C3.39088 43.5669 3.60331 43.8265 3.82774 44.0744C4.05217 44.3224 4.28515 44.5566 4.52667 44.7771C4.76431 44.9954 5.0129 45.2015 5.27149 45.3945C5.52722 45.5836 5.79269 45.7593 6.06678 45.9207C6.33829 46.0806 6.61812 46.226 6.90508 46.3563C7.19839 46.4895 7.49898 46.6061 7.80542 46.7055C8.40843 46.9005 9.03192 47.0253 9.66356 47.0775C10.296 47.1299 10.9324 47.1106 11.5606 47.0201C11.872 46.9751 12.1806 46.9124 12.4849 46.8324C12.79 46.7521 13.0903 46.6547 13.3844 46.5406C13.682 46.4253 13.973 46.2938 14.2562 46.1467C14.5324 46.0034 14.801 45.846 15.061 45.6752C15.3226 45.5032 15.5753 45.3182 15.8183 45.1209C16.0625 44.9225 16.2984 44.7112 16.5259 44.4869C16.7533 44.2626 16.972 44.0254 17.1818 43.7752C17.393 43.525 17.5918 43.2657 17.7781 42.9974C17.9645 42.729 18.139 42.4518 18.3017 42.1658C18.4649 41.8798 18.6155 41.5857 18.7533 41.2834C18.8912 40.9811 19.0173 40.6716 19.1318 40.3547C19.2498 40.0257 19.353 39.6923 19.4415 39.3545C19.53 39.0167 19.6039 38.675 19.6632 38.3295C19.7222 37.9826 19.7666 37.633 19.7964 37.2805C19.8261 36.9281 19.841 36.5728 19.841 36.2146C19.8407 35.8567 19.8259 35.5015 19.7964 35.1491C19.7669 34.7967 19.7225 34.448 19.6632 34.1031C19.6042 33.7578 19.5303 33.4164 19.4415 33.0789C19.3527 32.7414 19.2495 32.4085 19.1318 32.0803C19.0173 31.7632 18.8912 31.4539 18.7533 31.1525C18.6155 30.851 18.4643 30.5575 18.2997 30.2717C18.137 29.9885 17.9625 29.7129 17.7761 29.4451C17.5897 29.1773 17.3916 28.9194 17.1818 28.6714C16.9733 28.4237 16.7553 28.1883 16.5275 27.9651C16.2998 27.7419 16.0639 27.5321 15.8199 27.3356C15.5771 27.1395 15.3245 26.9557 15.0631 26.7851C14.803 26.6158 14.5344 26.4601 14.2583 26.3185C13.975 26.1731 13.684 26.0434 13.3865 25.93C13.0923 25.8178 12.792 25.7223 12.487 25.644C12.1826 25.5658 11.874 25.5051 11.5627 25.4621C11.2489 25.4189 10.933 25.3935 10.6164 25.3861M10.6164 24.352C12.0057 24.39 13.3683 24.7424 14.6015 25.3828C15.8271 26.0232 16.9134 26.9002 17.7976 27.963C18.7218 29.0706 19.4416 30.3336 19.9233 31.6931C20.955 34.6192 20.955 37.8097 19.9233 40.7358C19.4411 42.0991 18.7214 43.3666 17.7976 44.4795C16.9133 45.5473 15.8271 46.4306 14.6011 47.0788C13.3695 47.7267 12.0071 48.088 10.616 48.1356C9.21633 48.1814 7.82491 47.9042 6.54983 47.3255C5.2626 46.7362 4.11102 45.8876 3.16727 44.8329C2.1651 43.7159 1.38074 42.4215 0.854618 41.0164C-0.284873 37.9576 -0.284873 34.5911 0.854618 31.5323C1.38126 30.123 2.16546 28.8238 3.16727 27.701C4.11073 26.6403 5.26201 25.7845 6.54983 25.1864C7.82392 24.5995 9.21605 24.3135 10.6185 24.3503L10.6164 24.352Z" fill="#FFCC3D"/>
<path d="M10.618 39.167L7.36035 32.3846L8.13372 31.8812L10.8169 37.453L22.0833 24.219L22.7653 24.9452L10.618 39.167Z" fill="#FFCC3D"/>
<path d="M129.178 173.068L121.113 173.037L123.714 194.096L129.178 194.123V173.068Z" fill="#9E616A"/>
<path d="M130.571 199.422L112.962 199.329V199.107C112.962 198.655 113.006 198.204 113.093 197.761C113.267 196.887 113.612 196.056 114.109 195.317C114.614 194.567 115.261 193.924 116.013 193.423C116.756 192.93 117.589 192.588 118.464 192.419C118.908 192.334 119.359 192.292 119.811 192.295L130.571 192.348V199.422Z" fill="#333333"/>
<path d="M103.356 172.968L95.3145 172.937L97.9067 193.967L103.356 193.994V172.968Z" fill="#9E616A"/>
<path d="M104.745 199.285L87.1826 199.193V198.97C87.1825 198.52 87.2265 198.07 87.3141 197.627C87.4868 196.755 87.8309 195.925 88.3265 195.186C88.8298 194.437 89.4753 193.794 90.2264 193.294C90.967 192.801 91.7981 192.461 92.6715 192.292C93.1142 192.207 93.5643 192.166 94.0151 192.168L104.745 192.221V199.285Z" fill="#333333"/>
<path d="M103.014 86.894L89.4912 137.326L94.4408 185.669L105.4 185.971L103.014 142.32L116.686 120.537L119.651 186.269L129.593 185.566L135.123 129.05C137.001 124.637 138.379 120.027 139.23 115.308C139.898 111.603 140.223 107.845 140.201 104.08C140.19 101.546 139.995 99.0161 139.618 96.51C139.483 95.576 139.301 94.6496 139.072 93.7342L135.04 89.6495L103.014 86.894Z" fill="#462A0B"/>
<path d="M120.93 95.3289C118.656 95.3289 116.522 95.256 114.587 95.112C112.61 94.9765 110.644 94.7178 108.7 94.3376C107.045 94.0286 105.433 93.5214 103.899 92.8269C102.664 92.2939 101.59 91.4471 100.785 90.3707L100.692 90.2367L104.388 66.1979L108.374 39.169C108.637 37.3803 109.548 35.7505 110.935 34.5898C112.321 33.4291 114.087 32.8186 115.895 32.8744L128.378 33.2566C129.314 33.2853 130.235 33.5015 131.085 33.8924C131.936 34.2834 132.7 34.841 133.331 35.5324C133.963 36.2238 134.448 37.0347 134.76 37.9173C135.072 38.7998 135.203 39.7359 135.146 40.6701L133.508 67.5506L139.552 94.0653L139.124 94.125C138.952 94.1478 138.289 94.2353 137.249 94.3522C135.891 94.5048 134.504 94.6422 133.128 94.7609C131.18 94.9287 129.273 95.0607 127.462 95.1532C125.165 95.2702 122.963 95.3269 120.93 95.3289Z" fill="#E3CFB8"/>
<path d="M114.003 28.0979C114 28.0979 113.996 28.0979 113.993 28.0979C113.731 28.0977 113.472 28.046 113.23 27.9457C112.988 27.8454 112.768 27.6985 112.583 27.5133C112.398 27.3281 112.251 27.1083 112.151 26.8664C112.051 26.6246 112 26.3654 112 26.1037V14.9817C111.998 12.9891 112.397 11.0164 113.173 9.18095C114.693 5.59919 117.538 2.74176 121.114 1.20418C123.375 0.234703 125.842 -0.159078 128.294 0.0580998C130.745 0.275278 133.104 1.09663 135.16 2.44862C137.216 3.80061 138.904 5.64102 140.074 7.80504C141.243 9.96907 141.857 12.3892 141.861 14.8486V25.9876C141.861 26.2556 141.808 26.521 141.703 26.7679C141.498 27.2494 141.115 27.6333 140.634 27.8392C140.387 27.9445 140.121 27.9992 139.852 27.9999L114.001 28.0979H114.003Z" fill="#2F2E41"/>
<path d="M133.672 11.1673C134.713 13.068 135.167 15.2345 134.977 17.3931C134.787 19.5517 133.962 21.6056 132.604 23.2954C131.247 24.9852 129.419 26.2352 127.351 26.8873C125.283 27.5395 123.069 27.5647 120.987 26.9597C119.608 26.5638 118.321 25.8984 117.202 25.002C116.082 24.1057 115.152 22.9963 114.465 21.738C113.426 19.8381 112.973 17.6734 113.164 15.5168C113.354 13.3602 114.179 11.3082 115.535 9.61961C116.891 7.93101 118.717 6.68138 120.782 6.02829C122.848 5.3752 125.06 5.34788 127.141 5.94979C128.521 6.34426 129.809 7.00863 130.93 7.90435C132.051 8.80007 132.983 9.90932 133.672 11.1678V11.1673Z" fill="#9E616A"/>
<path d="M108.47 15.8869C108.468 14.311 108.784 12.7509 109.398 11.2993C110.6 8.46697 112.849 6.2076 115.677 4.99223C117.128 4.37095 118.689 4.04767 120.268 4.04163L122.495 4.03047C122.52 4.03033 122.545 4.03026 122.57 4.03028C124.112 4.03122 125.64 4.33577 127.064 4.92653C128.489 5.51729 129.783 6.38269 130.873 7.47332C131.963 8.56395 132.827 9.85845 133.417 11.2829C134.006 12.7074 134.309 14.2339 134.308 15.7753V15.9981L129.596 16.0171L127.989 11.5311L127.668 16.0258L125.234 16.0365L124.424 13.7733L124.261 16.0394L108.472 16.1101L108.47 15.8869Z" fill="#2F2E41"/>
<path d="M89.4995 39.2839C88.7744 39.4612 88.0964 39.7933 87.5119 40.2574C87.0552 40.6185 86.6647 41.0561 86.3577 41.5507C85.7524 42.5295 85.4856 43.6801 85.5986 44.8252C85.6556 45.4037 85.8126 45.968 86.0626 46.4928C86.3709 47.1469 86.8144 47.7283 87.364 48.1985C87.9136 48.6687 88.5568 49.017 89.251 49.2205C89.9452 49.4239 90.6747 49.4779 91.3914 49.3789C92.108 49.2799 92.7955 49.03 93.4085 48.6459C93.4536 48.6167 93.4984 48.5872 93.5427 48.5572C93.587 48.5272 93.6305 48.4965 93.6732 48.4653C93.7162 48.434 93.7584 48.4022 93.7999 48.3699C93.8414 48.3377 93.8826 48.3049 93.9235 48.2717L119.925 57.5201C120.726 57.8045 121.596 57.8215 122.407 57.5685C123.217 57.3155 123.924 56.8062 124.42 56.1173L130.584 47.5876L123.131 42.572L119.22 47.0122L95.4239 42.2816C95.3979 42.2199 95.3711 42.1586 95.3432 42.0976C95.3154 42.0366 95.2864 41.9759 95.2562 41.9154C95.2254 41.8551 95.1937 41.7951 95.1611 41.7354C95.1285 41.6758 95.094 41.6166 95.0577 41.5578C94.4899 40.6411 93.6464 39.9274 92.648 39.519C91.6496 39.1105 90.5475 39.0282 89.4995 39.2839Z" fill="#9E616A"/>
<path d="M119.64 44.2121C120.418 43.242 121.505 41.9824 122.61 40.7332C123.715 39.4839 124.837 38.2457 125.682 37.3194C126.528 36.3932 127.097 35.7793 127.097 35.7793C127.878 34.5996 129.043 33.7263 130.395 33.3079C131.747 32.8894 133.202 32.9515 134.513 33.4836C135.825 34.0158 136.911 34.9851 137.588 36.2271C138.266 37.469 138.492 38.9069 138.228 40.2965C138.078 41.0965 137.767 41.8579 137.314 42.5347C137.314 42.5347 136.466 43.644 135.186 45.2999C133.905 46.9557 132.192 49.16 130.464 51.3514C128.736 53.5427 126.991 55.7228 125.645 57.332C124.3 58.9412 123.353 59.9808 123.22 59.8918L118.526 45.9501C118.393 45.861 118.862 45.1822 119.64 44.2121Z" fill="#E3CFB8"/>
<path d="M122.426 27.7474C122.352 28.107 122.381 28.48 122.508 28.8241C122.573 29.0002 122.661 29.1664 122.772 29.318C122.866 29.4471 122.975 29.5646 123.097 29.6681C123.459 29.9734 123.918 30.14 124.391 30.138C124.421 30.1377 124.45 30.1369 124.48 30.1355C124.509 30.1341 124.539 30.1321 124.568 30.1293C124.598 30.1268 124.627 30.1235 124.657 30.1194C124.686 30.1153 124.716 30.1106 124.746 30.1053L126.418 29.8016L128.722 24.8832V29.3883L136.326 28.0202V8.90283L123.578 8.964L123.894 9.32977C124.94 10.5571 125.626 12.049 125.879 13.6414C126.126 15.2542 126.095 16.8974 125.787 18.4998C125.487 20.1211 125.033 21.71 124.43 23.2445C123.902 24.6039 123.297 25.9319 122.616 27.2217C122.529 27.3872 122.464 27.5641 122.426 27.7474Z" fill="#2F2E41"/>
<path d="M34.1304 200H191.699C191.809 200 191.914 199.956 191.991 199.879C192.069 199.801 192.112 199.696 192.112 199.587C192.112 199.477 192.069 199.372 191.991 199.294C191.914 199.217 191.809 199.173 191.699 199.173H34.1304C34.0207 199.173 33.9155 199.217 33.8379 199.294C33.7604 199.372 33.7168 199.477 33.7168 199.587C33.7168 199.696 33.7604 199.801 33.8379 199.879C33.9155 199.956 34.0207 200 34.1304 200Z" fill="#CACACA"/>
</g>
<defs>
<clipPath id="clip0_1787_2909">
<rect width="192.113" height="200" fill="white"/>
</clipPath>
</defs>
</svg>
