<svg width="244" height="180" viewBox="0 0 244 180" fill="none" xmlns="http://www.w3.org/2000/svg">
<g clip-path="url(#clip0_1787_2865)">
<path d="M207.637 179.413V159.453C207.637 159.453 215.4 173.604 207.637 179.413Z" fill="#F1F1F1"/>
<path d="M208.116 179.409L193.442 165.911C193.442 165.911 209.095 169.751 208.116 179.409Z" fill="#F1F1F1"/>
<path d="M52.6454 0H17.5484L0 30.4557L17.5484 60.9116H52.6454L70.1938 30.4557L52.6454 0Z" fill="#E6E6E6"/>
<path d="M19.5182 57.493H50.6756L66.2544 30.4557L50.6756 3.41846H19.5182L3.93945 30.4557L19.5182 57.493Z" fill="white"/>
<path d="M19.1415 23.8305C19.9353 23.8305 20.5789 23.1857 20.5789 22.3902C20.5789 21.5948 19.9353 20.95 19.1415 20.95C18.3476 20.95 17.7041 21.5948 17.7041 22.3902C17.7041 23.1857 18.3476 23.8305 19.1415 23.8305Z" fill="#E2E2E2"/>
<path d="M19.1415 31.8959C19.9353 31.8959 20.5789 31.2511 20.5789 30.4557C20.5789 29.6602 19.9353 29.0154 19.1415 29.0154C18.3476 29.0154 17.7041 29.6602 17.7041 30.4557C17.7041 31.2511 18.3476 31.8959 19.1415 31.8959Z" fill="#E2E2E2"/>
<path d="M19.1415 39.9616C19.9353 39.9616 20.5789 39.3168 20.5789 38.5213C20.5789 37.7259 19.9353 37.0811 19.1415 37.0811C18.3476 37.0811 17.7041 37.7259 17.7041 38.5213C17.7041 39.3168 18.3476 39.9616 19.1415 39.9616Z" fill="#E2E2E2"/>
<path d="M52.4891 21.238H25.1787V23.5425H52.4891V21.238Z" fill="#E2E2E2"/>
<path d="M52.4891 29.3035H25.1787V31.6079H52.4891V29.3035Z" fill="#E2E2E2"/>
<path d="M52.4891 37.3691H25.1787V39.6736H52.4891V37.3691Z" fill="#E2E2E2"/>
<path d="M226.452 0H191.355L173.807 30.4557L191.355 60.9116H226.452L244 30.4557L226.452 0Z" fill="#E6E6E6"/>
<path d="M193.325 57.493H224.482L240.061 30.4557L224.482 3.41846H193.325L177.746 30.4557L193.325 57.493Z" fill="white"/>
<path d="M192.948 23.8305C193.742 23.8305 194.386 23.1857 194.386 22.3902C194.386 21.5948 193.742 20.95 192.948 20.95C192.154 20.95 191.511 21.5948 191.511 22.3902C191.511 23.1857 192.154 23.8305 192.948 23.8305Z" fill="#E2E2E2"/>
<path d="M192.948 31.8962C193.742 31.8962 194.386 31.2513 194.386 30.4559C194.386 29.6605 193.742 29.0156 192.948 29.0156C192.154 29.0156 191.511 29.6605 191.511 30.4559C191.511 31.2513 192.154 31.8962 192.948 31.8962Z" fill="#E2E2E2"/>
<path d="M192.948 39.9616C193.742 39.9616 194.386 39.3168 194.386 38.5213C194.386 37.7259 193.742 37.0811 192.948 37.0811C192.154 37.0811 191.511 37.7259 191.511 38.5213C191.511 39.3168 192.154 39.9616 192.948 39.9616Z" fill="#E2E2E2"/>
<path d="M226.296 21.238H198.985V23.5425H226.296V21.238Z" fill="#E2E2E2"/>
<path d="M226.296 29.3035H198.985V31.6079H226.296V29.3035Z" fill="#E2E2E2"/>
<path d="M226.296 37.3691H198.985V39.6736H226.296V37.3691Z" fill="#E2E2E2"/>
<path d="M139.378 0.295898H104.622L87.2441 30.4558L104.622 60.616H139.378L156.757 30.4558L139.378 0.295898Z" fill="#E6E6E6"/>
<path d="M106.573 57.2306H137.428L152.855 30.4559L137.428 3.68115H106.573L91.1455 30.4559L106.573 57.2306Z" fill="white"/>
<path d="M106.2 23.8948C106.986 23.8948 107.623 23.2562 107.623 22.4685C107.623 21.6808 106.986 21.0422 106.2 21.0422C105.414 21.0422 104.776 21.6808 104.776 22.4685C104.776 23.2562 105.414 23.8948 106.2 23.8948Z" fill="#FFCC3D"/>
<path d="M106.2 31.8821C106.986 31.8821 107.623 31.2435 107.623 30.4558C107.623 29.6681 106.986 29.0295 106.2 29.0295C105.414 29.0295 104.776 29.6681 104.776 30.4558C104.776 31.2435 105.414 31.8821 106.2 31.8821Z" fill="#FFCC3D"/>
<path d="M106.2 39.8692C106.986 39.8692 107.623 39.2306 107.623 38.4429C107.623 37.6552 106.986 37.0166 106.2 37.0166C105.414 37.0166 104.776 37.6552 104.776 38.4429C104.776 39.2306 105.414 39.8692 106.2 39.8692Z" fill="#FFCC3D"/>
<path d="M139.224 21.3276H112.179V23.6097H139.224V21.3276Z" fill="#FFCC3D"/>
<path d="M139.224 29.3147H112.179V31.5968H139.224V29.3147Z" fill="#FFCC3D"/>
<path d="M139.224 37.302H112.179V39.5841H139.224V37.302Z" fill="#FFCC3D"/>
<path d="M151.631 176.511L148.255 176.511L146.649 163.463L151.632 163.464L151.631 176.511Z" fill="#9F616A"/>
<path d="M152.492 179.79L141.606 179.789V179.651C141.607 178.526 142.053 177.446 142.847 176.65C143.642 175.854 144.72 175.406 145.843 175.406L152.492 175.407L152.492 179.79Z" fill="#333333"/>
<path d="M183.022 176.511L179.646 176.511L178.04 163.463L183.022 163.464L183.022 176.511Z" fill="#9F616A"/>
<path d="M183.882 179.79L172.997 179.789V179.651C172.997 178.526 173.444 177.446 174.238 176.65C175.033 175.854 176.11 175.406 177.234 175.406L183.882 175.407L183.882 179.79Z" fill="#333333"/>
<path d="M150.285 110.299C150.285 110.299 147.452 118.006 147.857 121.251C148.261 124.495 145.023 147.21 145.428 149.238C145.833 151.266 145.023 161.406 145.428 163.029C145.833 164.651 144.292 166.589 145.101 168.211C145.911 169.834 147.047 173.169 147.047 173.169L152.309 172.763L153.119 168.302C153.119 168.302 155.548 167.896 155.143 165.462C154.738 163.029 157.167 146.804 157.167 146.804L164.049 124.09L173.764 144.776C173.764 144.776 174.169 159.378 175.383 161.001C176.597 162.623 174.169 167.085 175.383 168.707C176.597 170.33 177.812 173.169 177.812 173.169H183.884V169.924C183.884 169.924 187.527 167.896 183.884 161.812L181.422 125.274L178.993 108.644L150.285 110.299Z" fill="#462A0B"/>
<path d="M165.375 59.2972C169.551 59.2972 172.936 55.9054 172.936 51.7213C172.936 47.5373 169.551 44.1455 165.375 44.1455C161.199 44.1455 157.814 47.5373 157.814 51.7213C157.814 55.9054 161.199 59.2972 165.375 59.2972Z" fill="#A0616A"/>
<path d="M158.941 51.1987C159.475 52.5646 160.008 53.9304 160.542 55.2962C161.198 56.9752 161.949 58.7716 163.486 59.7087C165.385 60.8656 167.919 60.3015 169.756 59.0482C171.407 57.921 172.675 56.3144 173.388 54.4442C174.102 52.574 174.227 50.5297 173.748 48.586C173.268 46.6423 172.206 44.8923 170.705 43.5709C169.204 42.2496 167.335 41.4202 165.349 41.1942L165.273 42.5656L163.594 41.155C163.469 41.3686 163.299 41.5512 163.094 41.6891C162.889 41.827 162.656 41.9166 162.412 41.9512C162.167 41.9858 161.918 41.9645 161.684 41.8889C161.449 41.8133 161.234 41.6854 161.056 41.5147C161.497 42.431 160.988 43.5486 160.252 44.2506C159.349 45.1129 156.765 46.1492 156.872 47.6908C156.944 48.7195 158.525 50.1327 158.941 51.1987Z" fill="#2F2E41"/>
<path d="M186.187 121.505C186.448 121.116 186.62 120.674 186.692 120.21C186.763 119.747 186.732 119.273 186.602 118.823C186.471 118.373 186.243 117.957 185.935 117.604C185.626 117.252 185.244 116.971 184.815 116.783L184.966 109.454L180.544 108.276L180.476 118.628C180.207 119.371 180.22 120.186 180.511 120.919C180.802 121.653 181.352 122.254 182.056 122.609C182.76 122.963 183.57 123.047 184.331 122.844C185.092 122.64 185.753 122.164 186.187 121.505Z" fill="#9F616A"/>
<path d="M170.992 63.9793C170.992 63.9793 165.133 61.0439 159.6 63.0008C154.066 64.9577 151.137 67.2407 151.137 67.2407L154.717 86.1574L149.835 111.597C149.835 111.597 174.898 109.64 177.177 111.597C179.455 113.554 179.455 109.314 179.455 109.314L177.502 85.1789L181.083 69.8499L170.992 63.9793Z" fill="#E3CFB8"/>
<path d="M146.264 121.94C146.623 121.639 146.912 121.263 147.111 120.838C147.309 120.414 147.412 119.951 147.413 119.482C147.414 119.013 147.312 118.549 147.114 118.124C146.917 117.699 146.629 117.322 146.27 117.021L148.469 110.029L144.554 107.654L141.588 117.571C141.122 118.208 140.906 118.994 140.98 119.78C141.054 120.566 141.413 121.298 141.99 121.836C142.566 122.375 143.319 122.683 144.107 122.702C144.895 122.721 145.662 122.45 146.264 121.94Z" fill="#9F616A"/>
<path d="M153.415 67.2407H151.137C151.137 67.2407 147.557 69.5238 147.557 72.7852C147.557 76.0467 142.349 114.206 142.349 114.206L147.882 115.185L152.764 88.4404L156.345 81.2651L153.415 67.2407Z" fill="#E3CFB8"/>
<path d="M174.897 69.8501H181.082C181.082 69.8501 183.035 71.807 184.011 76.3731C184.988 80.9392 185.964 98.8773 185.964 98.8773L185.313 115.185H180.431L179.78 93.9851L176.525 80.2869L174.897 69.8501Z" fill="#E3CFB8"/>
<path d="M221.621 180H116.709C116.636 180 116.566 179.971 116.514 179.919C116.463 179.868 116.434 179.797 116.434 179.724C116.434 179.651 116.463 179.581 116.514 179.529C116.566 179.477 116.636 179.448 116.709 179.448H221.621C221.694 179.448 221.764 179.477 221.816 179.529C221.867 179.581 221.896 179.651 221.896 179.724C221.896 179.797 221.867 179.868 221.816 179.919C221.764 179.971 221.694 180 221.621 180Z" fill="#CBCBCB"/>
</g>
<defs>
<clipPath id="clip0_1787_2865">
<rect width="244" height="180" fill="white"/>
</clipPath>
</defs>
</svg>
