<svg width="38" height="12" viewBox="0 0 38 12" fill="none" xmlns="http://www.w3.org/2000/svg">
<path d="M19.2186 3.83626C19.1974 5.50791 20.7084 6.4407 21.8466 6.99535C23.016 7.56438 23.4088 7.92931 23.4041 8.43824C23.3954 9.21701 22.4713 9.56075 21.6066 9.5741C20.098 9.59748 19.2208 9.16679 18.5234 8.84105L17.98 11.3841C18.6796 11.7065 19.9752 11.9877 21.3186 12C24.4722 12 26.5353 10.4433 26.5465 8.02976C26.5589 4.96661 22.3096 4.79707 22.3387 3.42793C22.3487 3.01277 22.7448 2.56975 23.6129 2.45711C24.0425 2.4002 25.2286 2.35666 26.5734 2.9759L27.1012 0.51546C26.378 0.252141 25.4485 0 24.2913 0C21.3231 0 19.2355 1.57788 19.2186 3.83626ZM32.1727 0.211932C31.5969 0.211932 31.1116 0.547829 30.8951 1.06329L26.3903 11.8193H29.5416L30.1687 10.0862H34.0195L34.3832 11.8193H37.1607L34.737 0.211932H32.1727ZM32.6136 3.34751L33.523 7.7062H31.0324L32.6136 3.34751ZM15.3979 0.212077L12.9139 11.8191H15.9168L18.3996 0.211787L15.3979 0.212077ZM10.9556 0.211787L7.83002 8.11235L6.56569 1.39483C6.41733 0.644941 5.83147 0.211932 5.18087 0.211932H0.0715634L0 0.548991C1.04892 0.7766 2.24067 1.14371 2.96269 1.53651C3.40456 1.77646 3.53056 1.98621 3.67572 2.55639L6.0704 11.8193H9.24372L14.1089 0.211932L10.9556 0.211787Z" fill="url(#paint0_linear_1052_1669)"/>
<defs>
<linearGradient id="paint0_linear_1052_1669" x1="17.0843" y1="12.2407" x2="17.4316" y2="-0.0834656" gradientUnits="userSpaceOnUse">
<stop stop-color="#222357"/>
<stop offset="1" stop-color="#254AA5"/>
</linearGradient>
</defs>
</svg>
